<?xml version="1.0" encoding="iso-8859-1"?>
<!-- Uploaded to: SVG Repo, www.svgrepo.com, Generator: SVG Repo Mixer Tools -->
<svg version="1.1" id="Layer_1" xmlns="http://www.w3.org/2000/svg" xmlns:xlink="http://www.w3.org/1999/xlink" 
	 viewBox="0 0 512 512" xml:space="preserve">
<g>
	<rect x="20.335" y="155.126" style="fill:#4CD1B6;" width="471.345" height="107.736"/>
	<rect x="74.189" y="262.862" style="fill:#4CD1B6;" width="363.609" height="235.672"/>
</g>
<g>
	<rect x="202.125" y="155.126" style="fill:#F87F6E;" width="107.736" height="343.408"/>
	<path style="fill:#F87F6E;" d="M399.442,140.484C367.652,161.926,256,153.489,256,153.489s34.003-106.683,65.792-128.126
		s74.942-13.055,96.386,18.735C439.62,75.888,431.231,119.042,399.442,140.484z"/>
	<path style="fill:#F87F6E;" d="M112.558,140.484C144.348,161.926,256,153.489,256,153.489S221.997,46.806,190.208,25.362
		s-74.944-13.054-96.387,18.735S80.768,119.042,112.558,140.484z"/>
</g>
<g>
	<path style="fill:#231F20;" d="M491.672,141.658h-72.54c11.688-11.595,19.65-26.402,22.859-42.918
		c4.226-21.736-0.267-43.816-12.651-62.173C416.96,18.21,398.17,5.773,376.434,1.549c-21.736-4.227-43.816,0.267-62.173,12.65
		c-22.832,15.401-44.85,64.22-58.262,99.012c-13.41-34.792-35.43-83.611-58.262-99.012C179.38,1.817,157.299-2.674,135.563,1.549
		C113.828,5.773,95.037,18.21,82.657,36.567C70.274,54.924,65.782,77.004,70.006,98.74c3.209,16.516,11.171,31.322,22.859,42.918
		H20.328c-7.436,0-13.467,6.029-13.467,13.467v107.736c0,7.438,6.031,13.467,13.467,13.467h40.401v222.205
		c0,7.438,6.031,13.467,13.467,13.467h363.609c7.436,0,13.467-6.029,13.467-13.467V276.328h40.401
		c7.436,0,13.467-6.029,13.467-13.467V155.125C505.139,147.687,499.109,141.658,491.672,141.658z M188.665,485.066H87.663V276.328
		h101.002V485.066z M188.665,249.394H33.795v-80.802h154.87V249.394z M200.037,141.658c-33.515-0.458-67.171-3.72-79.949-12.34
		c-12.392-8.359-20.79-21.044-23.641-35.717c-2.851-14.672,0.182-29.579,8.541-41.973c8.359-12.392,21.044-20.789,35.717-23.641
		c3.598-0.699,7.21-1.045,10.795-1.045c11.036,0,21.825,3.275,31.177,9.584c17.696,11.936,40.903,64.955,54.926,104.555
		C231.139,141.366,200.037,141.658,200.037,141.658z M296.401,485.066h-80.802V276.328h80.802V485.066z M296.401,249.394h-80.802
		v-80.775c0.7-0.008,1.395-0.018,2.083-0.027h76.633c0.69,0.011,1.384,0.019,2.085,0.027v80.775H296.401z M274.395,141.079
		c14.011-39.59,37.215-92.603,54.928-104.551c12.394-8.359,27.298-11.392,41.973-8.539c14.674,2.852,27.358,11.249,35.717,23.641
		s11.392,27.299,8.539,41.973c-2.851,14.674-11.249,27.358-23.641,35.717c-12.861,8.675-46.932,11.917-80.704,12.34
		C311.208,141.658,281.008,141.367,274.395,141.079z M424.337,485.066H323.335V276.328h101.002V485.066z M478.205,249.394h-154.87
		v-80.802h154.87V249.394z"/>
	<path style="fill:#231F20;" d="M360.552,67.354c-2.668,0-5.19,0.663-7.509,1.969c-1.823,2.056-8.243,10.089-18.318,31.064
		c23.217-1.483,33.075-4.429,35.663-5.348c3.612-2.881,4.991-6.507,5.504-9.147c0.56-2.887,0.603-7.255-2.376-11.672
		C369.338,68.022,363.059,67.354,360.552,67.354z"/>
	<path style="fill:#231F20;" d="M151.446,67.354c-2.505,0-8.785,0.669-12.966,6.868c-2.979,4.417-2.936,8.785-2.376,11.672
		c0.513,2.64,1.892,6.266,5.504,9.147c2.59,0.918,12.445,3.865,35.663,5.348c-10.075-20.975-16.494-29.008-18.318-31.064
		C156.635,68.015,154.114,67.354,151.446,67.354z"/>
</g>
</svg>